<?xml version="1.0" standalone="no"?>
<!DOCTYPE svg PUBLIC "-//W3C//DTD SVG 20010904//EN"
 "http://www.w3.org/TR/2001/REC-SVG-20010904/DTD/svg10.dtd">
<svg version="1.0" xmlns="http://www.w3.org/2000/svg"
 width="184.000000pt" height="184.000000pt" viewBox="0 0 184.000000 184.000000"
 preserveAspectRatio="xMidYMid meet">
<metadata>
Created by potrace 1.11, written by Peter Selinger 2001-2013
</metadata>
<g transform="translate(0.000000,184.000000) scale(0.100000,-0.100000)"
fill="#000000" stroke="none">
<path d="M0 1830 c0 -5 5 -10 10 -10 6 0 10 5 10 10 0 6 -4 10 -10 10 -5 0
-10 -4 -10 -10z"/>
<path d="M246 1708 c4 -76 5 -138 3 -138 -2 0 -55 14 -118 30 -63 17 -116 28
-119 25 -3 -3 -3 -6 -1 -8 85 -62 189 -140 189 -142 0 -1 -43 -35 -95 -75 -53
-40 -94 -75 -92 -77 2 -2 55 10 118 27 63 16 116 30 118 30 2 0 1 -60 -2 -132
l-7 -133 23 45 c12 25 35 74 51 110 16 36 32 69 37 74 4 5 48 -26 97 -68 50
-42 93 -76 96 -76 3 0 -19 48 -49 106 -31 59 -53 109 -50 113 4 3 63 17 132
31 l125 26 -131 24 c-72 14 -131 28 -131 32 0 4 21 50 48 100 26 51 50 101 55
112 7 17 -74 -47 -154 -121 l-36 -34 -21 48 c-12 26 -37 84 -57 128 l-35 80 6
-137z"/>
<path d="M1820 1830 c0 -5 5 -10 10 -10 6 0 10 5 10 10 0 6 -4 10 -10 10 -5 0
-10 -4 -10 -10z"/>
<path d="M1586 1158 c-7 -4 -13 -20 -14 -37 0 -24 4 -30 30 -35 23 -5 34 -1
48 16 16 20 16 25 3 44 -14 22 -40 27 -67 12z"/>
<path d="M194 1001 c-66 -40 -84 -107 -41 -157 18 -21 35 -28 77 -32 l53 -5
-6 48 c-4 26 -7 54 -7 61 0 10 -13 14 -40 14 -45 0 -55 -17 -12 -22 23 -3 27
-8 30 -40 3 -35 1 -38 -22 -38 -37 0 -69 46 -62 90 9 58 73 99 104 68 9 -9 12
-7 12 10 0 29 -42 30 -86 3z"/>
<path d="M345 1008 c-10 -28 -55 -182 -55 -190 0 -4 7 -8 15 -8 8 0 15 9 15
19 0 34 12 51 35 51 18 0 27 -9 36 -35 13 -34 15 -35 64 -35 27 0 45 4 38 8
-7 5 -15 40 -18 82 l-5 75 27 -57 c14 -32 29 -58 33 -58 3 0 16 19 28 43 l22
42 -3 -68 c-1 -53 1 -66 11 -62 8 3 16 5 18 5 2 0 4 43 4 95 0 112 -12 123
-51 43 l-25 -51 -23 56 c-18 44 -28 57 -45 57 -20 0 -21 -4 -18 -100 2 -55 0
-100 -5 -100 -4 0 -26 45 -47 100 -21 55 -41 100 -43 100 -2 0 -6 -6 -8 -12z
m25 -100 c0 -5 -7 -8 -15 -8 -15 0 -20 21 -8 33 7 7 23 -11 23 -25z"/>
<path d="M635 915 l0 -105 67 0 c62 0 66 1 61 21 -4 14 -9 17 -16 10 -6 -6
-26 -11 -44 -11 -32 0 -33 1 -33 40 0 38 2 40 30 40 17 0 30 5 30 10 0 6 -13
10 -30 10 -28 0 -30 3 -30 35 0 34 1 35 38 35 21 0 43 -5 50 -12 9 -9 12 -7
12 10 0 20 -5 22 -67 22 l-68 0 0 -105z"/>
<path d="M785 997 c3 -12 7 -59 8 -105 2 -76 4 -82 23 -82 20 0 21 3 11 40
-12 43 -12 45 20 54 18 6 27 -1 53 -39 32 -46 51 -54 56 -22 1 9 -2 15 -6 12
-5 -3 -18 8 -30 24 l-21 30 21 21 c47 47 4 90 -90 90 -47 0 -50 -1 -45 -23z
m90 3 c8 0 20 -10 26 -22 10 -18 8 -24 -11 -40 -12 -10 -33 -18 -46 -18 -21 0
-24 5 -24 38 0 43 7 55 28 47 7 -3 20 -5 27 -5z"/>
<path d="M964 978 c1 -24 3 -71 4 -105 l2 -63 65 0 c60 0 65 2 65 22 0 17 -3
19 -12 10 -7 -7 -31 -12 -55 -12 l-43 0 0 89 c0 62 4 91 13 94 6 3 0 6 -14 6
-25 1 -27 -1 -25 -41z"/>
<path d="M1165 1009 c-10 -28 -55 -183 -55 -191 0 -4 7 -8 15 -8 8 0 15 9 15
19 0 34 12 51 35 51 18 0 27 -9 36 -35 8 -22 20 -35 31 -35 17 0 17 3 -2 50
-11 28 -29 74 -41 103 -24 61 -27 64 -34 46z m25 -101 c0 -5 -7 -8 -15 -8 -15
0 -20 21 -8 33 7 7 23 -11 23 -25z"/>
<path d="M1387 955 c1 -36 0 -65 -1 -65 -1 0 -22 27 -46 60 -64 89 -76 83 -72
-40 3 -92 5 -100 23 -100 11 0 18 4 15 9 -7 10 -19 141 -14 141 2 0 29 -34 59
-75 29 -41 57 -75 62 -75 8 0 9 127 0 178 -10 59 -28 37 -26 -33z"/>
<path d="M1433 1007 c14 -11 17 -30 17 -96 0 -50 -4 -81 -11 -81 -5 0 -7 -4
-4 -10 9 -15 61 -12 103 7 20 9 39 16 42 15 3 0 7 24 8 53 3 47 0 57 -25 85
-24 26 -37 32 -88 36 -53 5 -58 4 -42 -9z m75 -13 c26 -7 52 -51 52 -87 0 -34
-36 -77 -66 -77 -24 0 -24 2 -24 85 0 47 3 85 8 85 4 0 17 -3 30 -6z"/>
<path d="M1212 728 c-16 -16 -15 -71 1 -134 l13 -51 -62 -27 c-69 -31 -110
-67 -100 -91 8 -23 61 -42 131 -48 33 -3 60 -6 60 -6 2 -107 21 -176 50 -187
24 -10 60 31 91 101 l27 62 45 -13 c48 -15 110 -18 136 -8 35 13 18 57 -44
116 l-60 57 31 50 c18 29 34 69 36 95 6 46 5 46 -25 46 -39 0 -77 -14 -124
-47 l-37 -25 -58 61 c-58 60 -87 73 -111 49z"/>
<path d="M620 530 c-24 -49 -44 -90 -45 -90 -7 3 -205 36 -205 34 0 -1 34 -34
75 -74 l75 -73 -51 -95 -52 -94 94 51 94 50 77 -76 76 -76 -14 74 c-8 41 -17
88 -20 104 -5 30 -3 31 85 75 50 24 88 47 83 50 -4 4 -47 12 -96 18 -49 6 -90
13 -92 15 -2 2 -9 42 -15 88 -7 46 -15 90 -18 97 -4 7 -25 -26 -51 -78z"/>
<path d="M0 10 c0 -5 5 -10 10 -10 6 0 10 5 10 10 0 6 -4 10 -10 10 -5 0 -10
-4 -10 -10z"/>
<path d="M1820 10 c0 -5 5 -10 10 -10 6 0 10 5 10 10 0 6 -4 10 -10 10 -5 0
-10 -4 -10 -10z"/>
</g>
</svg>
